<svg id="Capa_1" enable-background="new 0 0 512.07 512.07" height="512" viewBox="0 0 512.07 512.07" width="512" xmlns="http://www.w3.org/2000/svg"><g><path d="m338.825 362.07 81.71-195-82.48-32.59 3.65 59.47-81.17-31.99-81.17 31.99 5.35-87.08-40.35-48.92-52.83-20.88 92.72 325zm-117.79-140h79v30h-79zm0 60h79v30h-79z"/><path d=""/><path d="m215.375 96.91-3.18 51.86 48.34-19.05 48.34 19.05c-.791-12.935-2.386-38.951-3.18-51.86l33.05-40.09-50.3-13-27.91-43.82-27.91 43.82-50.3 13c7.972 9.663 25.227 30.588 33.05 40.09z"/></g></svg>